<svg
    width="256"
    height="256"
    viewBox="0 0 256 256"
    fill="none"
    xmlns="http://www.w3.org/2000/svg"
>
    <rect width="256" height="256" rx="64" fill="url(#paint0_linear_90_10)" />
    <path
        d="M128 46C114.193 46 103 57.1929 103 71C103 82.6337 110.953 92.4098 121.708 95.1906V119H85C79.4772 119 75 123.477 75 129C75 134.523 79.4772 139 85 139H121.708V172.099C106.842 168.722 93.1977 161.429 80.7741 150.218C76.6718 146.514 70.3491 146.748 66.5317 150.745L46.7431 171.458C42.8298 175.554 43.0534 182.068 47.2232 185.902C69.5367 206.428 96.4623 216.691 128 216.691C159.538 216.691 186.463 206.428 208.777 185.902C212.947 182.068 213.17 175.554 209.257 171.458L189.468 150.745C185.651 146.748 179.328 146.514 175.226 150.218C162.802 161.429 149.158 168.722 134.292 172.099V139H171C176.523 139 181 134.523 181 129C181 123.477 176.523 119 171 119H134.292V95.1906C145.047 92.4098 153 82.6337 153 71C153 57.1929 141.807 46 128 46Z"
        fill="#F7F3E8"
    />
    <path
        d="M128 202.691C155.245 202.691 177.958 194.387 196.139 177.778L182.453 163.45C167.933 175.36 151.449 182.156 133 183.839V189C133 191.761 130.761 194 128 194C125.239 194 123 191.761 123 189V183.839C104.551 182.156 88.0669 175.36 73.5471 163.45L59.8608 177.778C78.0415 194.387 100.755 202.691 128 202.691Z"
        fill="#6FE7DD"
        fill-opacity="0.9"
    />
    <defs>
        <linearGradient
            id="paint0_linear_90_10"
            x1="32"
            y1="24"
            x2="224"
            y2="232"
            gradientUnits="userSpaceOnUse"
        >
            <stop stop-color="#0F3D56" />
            <stop offset="1" stop-color="#16697A" />
        </linearGradient>
    </defs>
</svg>
